HIERARCHY
ROOT Hips
{
	OFFSET	0.000000	0.000000	0.000000
	CHANNELS 6 Xposition Yposition Zposition Zrotation Xrotation Yrotation
	JOINT LeftUpLeg
	{
		OFFSET	12.811937	-7.635976	0.557276
		CHANNELS 3 Zrotation Xrotation Yrotation
		JOINT LeftLeg
		{
			OFFSET	-0.429270	-42.206159	-1.204951
			CHANNELS 3 Zrotation Xrotation Yrotation
			JOINT LeftFoot
			{
				OFFSET	-2.112259	-42.464481	-3.973220
				CHANNELS 3 Zrotation Xrotation Yrotation
				JOINT LeftFootHeel
				{
					OFFSET	0.387196	-5.329707	-3.419729
					CHANNELS 3 Zrotation Xrotation Yrotation
					End Site
					{
						OFFSET	0.327567	-0.000003	16.505428
					}
				}
			}
		}
	}
	JOINT RightUpLeg
	{
		OFFSET	-12.811937	-7.635976	0.557276
		CHANNELS 3 Zrotation Xrotation Yrotation
		JOINT RightLeg
		{
			OFFSET	0.429270	-42.206159	-1.204951
			CHANNELS 3 Zrotation Xrotation Yrotation
			JOINT RightFoot
			{
				OFFSET	2.112259	-42.464481	-3.973220
				CHANNELS 3 Zrotation Xrotation Yrotation
				JOINT RightFootHeel
				{
					OFFSET	-0.387198	-5.329707	-3.419729
					CHANNELS 3 Zrotation Xrotation Yrotation
					End Site
					{
						OFFSET	-0.327566	-0.000003	16.505428
					}
				}
			}
		}
	}
	JOINT Spine
	{
		OFFSET	0.000000	13.731315	-1.007646
		CHANNELS 3 Zrotation Xrotation Yrotation
		JOINT Spine1
		{
			OFFSET	0.000000	12.091746	-0.604589
			CHANNELS 3 Zrotation Xrotation Yrotation
			JOINT LeftShoulder
			{
				OFFSET	5.746115	20.990027	-0.833816
				CHANNELS 3 Zrotation Xrotation Yrotation
				JOINT LeftArm
				{
					OFFSET	10.881538	-1.359258	0.219250
					CHANNELS 3 Zrotation Xrotation Yrotation
					JOINT LeftForeArm
					{
						OFFSET	4.390314	-31.537147	0.202818
						CHANNELS 3 Zrotation Xrotation Yrotation
						JOINT LeftHand
						{
							OFFSET	3.168650	-24.865023	5.373370
							CHANNELS 3 Zrotation Xrotation Yrotation
							End Site
							{
								OFFSET	1.457528	-10.806075	2.170267
							}
						}
					}
				}
			}
			JOINT RightShoulder
			{
				OFFSET	-5.746115	20.990027	-0.833816
				CHANNELS 3 Zrotation Xrotation Yrotation
				JOINT RightArm
				{
					OFFSET	-10.881538	-1.359258	0.219250
					CHANNELS 3 Zrotation Xrotation Yrotation
					JOINT RightForeArm
					{
						OFFSET	-4.390314	-31.537147	0.202818
						CHANNELS 3 Zrotation Xrotation Yrotation
						JOINT RightHand
						{
							OFFSET	-3.168650	-24.865023	5.373370
							CHANNELS 3 Zrotation Xrotation Yrotation
							End Site
							{
								OFFSET	-1.457528	-10.806075	2.170267
							}
						}
					}
				}
			}
			JOINT Neck
			{
				OFFSET	0.000000	27.075639	0.680489
				CHANNELS 3 Zrotation Xrotation Yrotation
				JOINT Head
				{
					OFFSET	0.000000	12.391287	1.239129
					CHANNELS 3 Zrotation Xrotation Yrotation
					End Site
					{
						OFFSET	0.000000	13.818691	-0.105853
					}
				}
			}
		}
	}
}
MOTION
Frames:     8
Frame Time: 0.016667
-54.344604	94.856331	-223.984503	178.155212	177.103699	28.535404	-7.109460	16.886272	10.128448	10.968056	13.145983	-16.964407	-1.707899	-13.846747	0.529654	0.	0.	0.	-10.130265	-21.900553	-23.950401	0.920266	2.862690	-18.388481	10.858644	9.459442	9.252119	0.	0.	0.	-3.682103	12.221086	3.277500	3.193515	3.503002	-20.652964	3.174163	-3.361035	1.492575	2.216779	-18.761116	-5.974218	-2.542310	-13.898690	3.008580	1.755172	-1.669244	-9.861932	1.509414	-2.971027	0.889825	1.645610	5.527166	-9.278218	-1.536146	1.744129	5.096653	-6.297050	3.985824	12.944041	-0.387077	-9.234238	61.268539	0.808167	-4.619891	-69.529732	
-54.416784	94.981468	-225.525146	178.806534	177.239014	28.894266	-6.478392	16.918354	10.125476	12.379126	14.886903	-17.725618	-3.379883	-13.229235	0.343871	0.	0.	0.	-9.351258	-22.082819	-24.243271	0.869281	3.803486	-17.916519	7.527758	10.703328	8.631900	0.	0.	0.	-3.122644	11.400248	3.391417	3.092830	3.522453	-20.627432	3.064027	-3.315826	1.282883	1.951505	-18.312216	-5.999010	-2.334601	-13.371497	2.764632	1.954188	-1.642061	-10.524843	1.453212	-2.985658	0.753081	1.966135	5.607882	-9.380539	-1.787074	2.117741	4.594615	-6.054693	4.166006	12.818127	-0.319346	-9.183873	61.061375	0.733342	-4.466037	-69.760468	
-54.041880	95.057617	-227.256823	179.685623	177.075882	29.195381	-5.527976	16.956013	10.333521	14.019380	16.815683	-18.515676	-5.163601	-11.798034	-0.039011	0.	0.	0.	-7.582844	-20.992279	-24.960592	1.436279	2.449401	-16.160847	3.046046	12.645006	7.730940	0.	0.	0.	-2.232893	10.564094	3.701716	2.925873	3.447224	-20.730352	2.876095	-3.180392	1.138607	1.656298	-17.587843	-6.071780	-1.991334	-12.773448	2.840150	2.498208	-1.449443	-11.603721	1.406084	-3.002777	0.638429	2.229862	5.846362	-9.360667	-2.023880	2.557213	4.126639	-5.795958	4.409726	12.757543	-0.143167	-8.932721	60.838020	0.681158	-4.176158	-69.922394	
-54.246339	95.484403	-230.039308	-179.329544	176.264175	29.348131	-4.200444	17.206944	10.899417	15.932782	19.065165	-19.355412	-6.792627	-9.319592	-0.493229	0.	0.	0.	-5.129403	-18.428328	-25.022099	1.921691	0.823333	-13.804288	0.611161	14.360601	6.727885	0.	0.	0.	-0.870784	10.257593	4.100243	2.715470	3.352721	-20.795605	2.615846	-3.067965	1.050094	1.269704	-16.852442	-6.093367	-1.558444	-11.876497	3.271845	3.535525	-1.343015	-13.013958	1.355641	-3.045404	0.620219	2.373314	5.939909	-9.306025	-2.222799	3.137442	3.723260	-5.515000	4.659967	12.788563	-0.129805	-8.709255	60.661617	0.846714	-3.957007	-70.047913	
-54.967099	95.814150	-232.683352	-178.264725	175.046890	29.335377	-2.654766	17.212193	11.702033	18.377497	21.865446	-20.342285	-8.745465	-5.122869	-0.943548	0.	0.	0.	-2.873742	-15.855722	-23.696781	2.273535	0.019455	-12.793748	-0.432033	15.273561	5.013399	0.	0.	0.	0.821698	10.462043	4.540612	2.423779	3.102717	-20.807030	2.374624	-2.954411	0.975187	0.699526	-16.218340	-5.911008	-0.990868	-10.513423	3.893135	4.894756	-1.519899	-14.305932	1.352315	-3.097976	0.655511	2.306237	5.839995	-9.139775	-2.404495	3.889560	3.396252	-5.139531	4.959583	12.994408	-0.095639	-8.485990	60.629856	1.087662	-3.671100	-70.212425	
-55.250769	95.831320	-233.645716	-177.722321	174.452408	29.262457	-1.833904	16.885798	12.189959	19.898495	23.533836	-20.873272	-9.890686	-2.029639	-1.394996	0.	0.	0.	-2.080775	-15.071656	-22.659958	2.629627	0.239918	-13.284431	-0.849808	15.429935	4.334609	0.	0.	0.	1.638421	10.633964	4.823064	2.296758	2.909019	-20.853407	2.290554	-2.870953	0.959990	0.350929	-15.929833	-5.682244	-0.684022	-9.707087	4.214552	5.586993	-1.702264	-14.756774	1.351393	-3.124269	0.683177	2.202942	5.721707	-8.983953	-2.496126	4.295070	3.278723	-4.903686	5.169683	13.167052	-0.018702	-8.366475	60.623421	1.172585	-3.503964	-70.229561	
-55.568584	95.859738	-235.563176	-176.656372	173.633728	28.997822	-0.024503	15.268359	13.537048	23.013552	27.430254	-21.524275	-11.006656	5.296309	-3.597983	0.	0.	0.	-0.580877	-14.310149	-21.072409	3.026436	1.466687	-14.490607	-1.188464	15.267467	3.740998	0.	0.	0.	3.043582	10.809755	5.503311	2.089674	2.537385	-21.005476	2.220747	-2.765070	0.959332	-0.404557	-15.370328	-4.862294	-0.129883	-7.971254	4.783759	6.854644	-2.136780	-15.146068	1.325884	-3.222088	0.753930	1.919989	5.302787	-8.570987	-2.690084	5.025488	3.161384	-4.424486	5.785117	13.684125	0.064962	-8.248011	60.587521	1.395152	-3.283792	-70.189919	
-55.576166	95.811786	-236.700723	-175.700455	173.217636	28.700506	1.974189	12.490070	14.703501	25.086508	30.913511	-23.092348	-11.206798	9.046803	-5.011265	0.	0.	0.	0.909934	-14.116833	-20.560575	2.909057	2.032591	-14.566244	-1.152615	15.093501	3.517808	0.	0.	0.	4.039351	10.727776	5.700071	2.050645	2.414747	-20.834646	2.223706	-2.747130	0.972962	-0.792943	-15.073980	-4.299755	0.090876	-6.042634	6.244304	7.247631	-3.525728	-16.148987	1.295960	-3.295408	0.811670	1.767864	5.022010	-8.335567	-2.791795	5.313128	3.137963	-4.225804	6.190318	14.039448	0.084785	-8.252225	60.604187	1.522187	-3.235620	-70.184067	
